<svg xmlns="http://www.w3.org/2000/svg" width="28" height="28" viewBox="0 0 24 24" fill="none" stroke="currentColor" stroke-width="1.8" stroke-linecap="round" stroke-linejoin="round" aria-hidden="true"><circle cx="12" cy="12" r="1"/><path d="M19 12a7 7 0 1 1-14 0 7 7 0 0 1 14 0z"/><path d="M16.24 7.76c2.343 2.344 2.343 6.142 0 8.485-2.344 2.343-6.142 2.343-8.485 0-2.343-2.343-2.343-6.141 0-8.485 2.343-2.343 6.141-2.343 8.485 0z"/><path d="M7.76 7.76c-2.343 2.343-2.343 6.141 0 8.485 2.343 2.343 6.141 2.343 8.485 0 2.343-2.344 2.343-6.142 0-8.485-2.344-2.343-6.142-2.343-8.485 0z"/></svg>
